<svg xmlns="http://www.w3.org/2000/svg" viewBox="0 0 300 300"><circle cx="150" cy="150" r="150"/><path fill="#f9f9f9" d="M110.123 216.7057q-25.7521 0-39.5325-17.1394-13.6943-17.2254-13.6943-49.5232 0-32.47 13.6943-49.6094 13.7804-17.1394 39.5325-17.1394 7.493 0 14.211 1.5503t12.5746 4.6509v28.2498q-3.8757-3.6174-6.9763-5.5983-3.0144-2.067-5.7705-3.2729-3.2729-1.4641-6.4596-2.067-3.1006-.689-6.2873-.689-13.7804 0-20.929 11.0243-7.1485 11.2827-7.1485 32.9007 0 21.704 7.1485 32.7284 7.1486 11.1104 20.929 11.1104 6.6318 0 12.833-2.8422 3.0145-1.378 5.9428-3.359 3.0144-2.067 6.718-5.426v28.2498q-6.029 3.1006-12.6608 4.651-6.6318 1.5502-14.1249 1.5502zm106.1951 0q-25.752 0-39.5325-17.1394-13.6942-17.2254-13.6942-49.5232 0-32.47 13.6942-49.6094 13.7804-17.1394 39.5325-17.1394 7.4931 0 14.211 1.5503 6.718 1.5503 12.5747 4.6509v28.2498q-3.8758-3.6174-6.9764-5.5983-3.0144-2.067-5.7705-3.2729-3.2728-1.4641-6.4595-2.067-3.1006-.689-6.2874-.689-13.7803 0-20.929 11.0243-7.1485 11.2827-7.1485 32.9007 0 21.704 7.1486 32.7284 7.1486 11.1104 20.929 11.1104 6.6318 0 12.833-2.8422 3.0144-1.378 5.9427-3.359 3.0145-2.067 6.718-5.426v28.2498q-6.029 3.1006-12.6608 4.651-6.6318 1.5502-14.1249 1.5502z" aria-label="CC" font-family="Hack" font-size="176.389" font-weight="700" style="line-height:1;-inkscape-font-specification:&quot;Hack Bold&quot;"/></svg>
