<svg xmlns="http://www.w3.org/2000/svg" viewBox="0 0 53.258 19.705"><g fill="#fff"><path d="M102.692 157.584h-.486l.165-.95h-.543l-.165.95h-.486l.39-2.248h.483l-.149.864h.543l.15-.864h.488zm.796-2.248-.079.454h.493l.079-.454zm-.147.85-.243 1.398h.492l.243-1.398zm1.046-.85-.39 2.248h.476l.146-.835h.229a.884.884 0 0 0 .314-.054.688.688 0 0 0 .413-.419.978.978 0 0 0 .06-.355.64.64 0 0 0-.051-.268.52.52 0 0 0-.333-.286.782.782 0 0 0-.223-.03zm.404.413h.161c.068 0 .121.021.16.064.04.042.06.101.06.177a.392.392 0 0 1-.086.267.287.287 0 0 1-.229.098h-.168zm2.21.016h-.588l-.083.467h.55l-.07.4h-.546l-.09.514h.642l-.076.438h-1.108l.39-2.248h1.051zm.802-.429-.975 2.248h.508l.169-.422h.523l.01.422h.495l-.117-2.248zm.2.486h.013l.02.965h-.404zm2.121.083q-.044-.073-.108-.115-.063-.041-.165-.041-.127 0-.228.092-.102.092-.172.232-.07.14-.108.31-.035.17-.035.325 0 .203.073.333.073.127.235.127.108 0 .181-.047.073-.051.124-.105l.226.362q-.111.114-.264.19-.15.073-.352.073-.178 0-.318-.063-.136-.064-.228-.178-.092-.114-.14-.273-.048-.162-.048-.356 0-.285.077-.555.079-.27.222-.477.143-.21.34-.333.2-.127.438-.127.228 0 .365.076.14.076.219.188zm-21.488.05a.363.363 0 0 0-.263.099.743.743 0 0 0-.162.241h-.003l.047-.286h-.2l-.406 2.337h.206l.178-1.032h.006a.38.38 0 0 0 .098.235c.057.06.136.089.235.089a.415.415 0 0 0 .276-.101.85.85 0 0 0 .207-.267 1.52 1.52 0 0 0 .127-.362c.03-.134.044-.264.044-.39a.742.742 0 0 0-.098-.407.324.324 0 0 0-.292-.156zm-.063.181c.084 0 .145.036.184.108a.604.604 0 0 1 .057.283c0 .093-.011.195-.032.305-.02.108-.049.208-.089.301a.766.766 0 0 1-.149.232.276.276 0 0 1-.203.092.199.199 0 0 1-.187-.111.668.668 0 0 1-.058-.298 1.534 1.534 0 0 1 .127-.594.818.818 0 0 1 .15-.225.272.272 0 0 1 .2-.093zm1.39-.18a.472.472 0 0 0-.292.098.836.836 0 0 0-.219.254c-.06.103-.106.222-.14.355a1.684 1.684 0 0 0-.047.397c0 .176.039.316.117.422a.386.386 0 0 0 .327.156.48.48 0 0 0 .29-.095.865.865 0 0 0 .222-.254 1.58 1.58 0 0 0 .19-.753.693.693 0 0 0-.118-.422.382.382 0 0 0-.33-.159zm-.019.18c.089 0 .154.039.194.115.04.074.06.171.06.292a1.569 1.569 0 0 1-.124.597.734.734 0 0 1-.149.225.27.27 0 0 1-.2.089c-.089 0-.154-.036-.194-.108a.612.612 0 0 1-.057-.286 1.566 1.566 0 0 1 .124-.6c.04-.093.089-.17.146-.231a.273.273 0 0 1 .2-.093zm1.864 1.448h-.245l-.044-1.286v.003l-.495 1.283h-.239l-.04-1.575h.206l.006 1.337h.003l.514-1.337h.2l.044 1.34h.003l.48-1.34h.206zm1.352-1.629a.463.463 0 0 0-.292.102.906.906 0 0 0-.22.264c-.059.105-.104.224-.136.355a1.66 1.66 0 0 0-.047.39c0 .18.039.321.117.423.08.1.194.149.34.149a.463.463 0 0 0 .295-.095.866.866 0 0 0 .203-.242l-.15-.095a.59.59 0 0 1-.135.169.279.279 0 0 1-.191.07.224.224 0 0 1-.203-.105.522.522 0 0 1-.067-.283c0-.07.006-.142.02-.216h.834a2.383 2.383 0 0 0 .042-.375.831.831 0 0 0-.023-.2.45.45 0 0 0-.073-.165.314.314 0 0 0-.127-.108.417.417 0 0 0-.187-.038zm-.016.184c.08 0 .139.031.175.093a.453.453 0 0 1 .057.241c0 .03-.002.06-.006.092l-.016.105h-.626a1.027 1.027 0 0 1 .13-.337.55.55 0 0 1 .124-.136.248.248 0 0 1 .162-.058zm1.458.039q-.026-.006-.051-.006-.08 0-.15.054-.07.054-.126.14-.054.085-.095.196-.039.108-.058.22l-.14.802h-.209l.207-1.174q.003-.029.012-.086l.02-.117q.01-.064.015-.118.01-.054.013-.08h.2l-.01.074q-.006.044-.016.098l-.019.102q-.01.047-.013.076h.01q.076-.203.188-.299.114-.095.231-.095.026 0 .035.003zm.704-.223a.463.463 0 0 0-.292.102.904.904 0 0 0-.22.264c-.058.105-.104.224-.135.355a1.66 1.66 0 0 0-.048.39c0 .18.039.321.117.423.08.1.194.149.34.149a.461.461 0 0 0 .295-.095.866.866 0 0 0 .203-.242l-.149-.095a.59.59 0 0 1-.136.169.278.278 0 0 1-.19.07.225.225 0 0 1-.204-.105.522.522 0 0 1-.067-.283c0-.07.006-.142.02-.216h.834a2.416 2.416 0 0 0 .042-.375.831.831 0 0 0-.022-.2.45.45 0 0 0-.073-.165.316.316 0 0 0-.127-.108.417.417 0 0 0-.188-.038zm-.015.184c.08 0 .139.031.175.093a.453.453 0 0 1 .056.241c0 .03-.002.06-.006.092l-.016.105h-.625a1.027 1.027 0 0 1 .13-.337.549.549 0 0 1 .124-.136.25.25 0 0 1 .162-.058zm1.831-.955-.19 1.095h-.006a.377.377 0 0 0-.095-.232c-.053-.061-.13-.092-.23-.092a.42.42 0 0 0-.278.105.838.838 0 0 0-.21.267 1.43 1.43 0 0 0-.13.362 1.8 1.8 0 0 0-.045.39c0 .167.031.303.093.407.061.101.156.152.285.152a.375.375 0 0 0 .267-.098.705.705 0 0 0 .171-.245h.003l-.05.29h.2l.418-2.401zm-.498.952c.085 0 .146.039.184.115.04.074.06.171.06.292 0 .093-.01.193-.034.301a1.31 1.31 0 0 1-.095.296.789.789 0 0 1-.15.225.265.265 0 0 1-.196.089.2.2 0 0 1-.188-.108.605.605 0 0 1-.057-.283 1.574 1.574 0 0 1 .124-.603c.04-.093.09-.17.15-.231a.276.276 0 0 1 .202-.093zm1.77-.952-.42 2.4h.2l.048-.286h.006c.008.098.039.18.092.245.052.063.134.095.244.095a.404.404 0 0 0 .273-.105.84.84 0 0 0 .207-.27c.057-.11.1-.231.13-.365.031-.135.047-.266.047-.393a.711.711 0 0 0-.098-.397.328.328 0 0 0-.295-.153.367.367 0 0 0-.251.095.67.67 0 0 0-.169.235h-.006l.194-1.101zm.37.952c.085 0 .147.036.185.108.04.072.06.166.06.283a1.571 1.571 0 0 1-.124.603.814.814 0 0 1-.15.235.275.275 0 0 1-.202.092.196.196 0 0 1-.188-.111.64.64 0 0 1-.057-.292 1.54 1.54 0 0 1 .127-.6.818.818 0 0 1 .15-.225.273.273 0 0 1 .2-.093zm1.013 1.794q-.086.2-.187.308-.099.108-.267.108-.082 0-.136-.022l.04-.187q.039.019.1.019.095 0 .148-.067.058-.064.105-.175l.118-.286-.172-1.619h.213l.105 1.337h.006l.543-1.337h.212z" transform="translate(-77.787 -138.642)" /><path d="M80.607 142.096c-.335 0-.643.09-.925.268a2.441 2.441 0 0 0-.717.704c-.2.29-.357.626-.469 1.005-.107.38-.16.77-.16 1.173 0 .272.032.523.1.75.067.224.165.417.295.577.13.161.29.286.482.376.197.09.42.134.67.134.286 0 .535-.052.745-.154.214-.108.4-.242.556-.403l-.476-.764c-.072.076-.159.15-.262.221a.685.685 0 0 1-.382.101c-.228 0-.393-.09-.496-.268-.103-.183-.154-.418-.154-.704 0-.219.025-.447.074-.684.054-.24.13-.46.228-.656.098-.197.219-.36.362-.49a.7.7 0 0 1 .482-.194c.143 0 .26.03.349.087.09.058.165.138.228.241l.703-.764a1.349 1.349 0 0 0-.462-.395c-.192-.107-.449-.161-.77-.161zm3.237 0c-.348 0-.66.094-.938.281a2.454 2.454 0 0 0-.697.724c-.188.3-.333.64-.436 1.019-.098.38-.147.764-.147 1.153 0 .272.033.52.1.744.067.219.166.409.295.57.13.156.289.279.476.368.192.085.41.127.65.127.344 0 .653-.091.925-.274a2.35 2.35 0 0 0 .698-.724c.192-.3.34-.637.442-1.012.103-.38.154-.764.154-1.153 0-.273-.031-.52-.094-.744a1.589 1.589 0 0 0-.288-.576 1.215 1.215 0 0 0-.476-.37 1.529 1.529 0 0 0-.664-.133zm25.217 0c-.34 0-.65.09-.932.268a2.523 2.523 0 0 0-.717.71c-.197.29-.351.626-.463 1.006-.107.375-.16.762-.16 1.16 0 .263.033.509.1.737.067.223.167.418.301.583.139.16.311.288.517.382.205.094.447.14.724.14.281 0 .531-.037.75-.113.224-.076.42-.172.59-.289l.436-2.513h-1.535l-.16.898h.63l-.168.932a.885.885 0 0 1-.456.114.659.659 0 0 1-.322-.074.675.675 0 0 1-.221-.214 1.074 1.074 0 0 1-.134-.309 1.666 1.666 0 0 1-.04-.375c0-.215.024-.442.073-.684.054-.241.13-.462.228-.663.103-.206.228-.376.376-.51a.758.758 0 0 1 .515-.2c.148 0 .271.028.37.086.098.059.178.14.24.248l.691-.757c-.098-.165-.25-.3-.456-.402-.2-.107-.46-.161-.777-.161zm-17.562.12-.824 4.746h1.005l.308-1.763h.483c.241 0 .462-.038.663-.114a1.45 1.45 0 0 0 .53-.335 1.49 1.49 0 0 0 .342-.55c.085-.218.127-.469.127-.75 0-.22-.036-.407-.107-.564a1.098 1.098 0 0 0-.703-.603 1.654 1.654 0 0 0-.47-.067zm10.054 0-.156.9h1.04l.155-.9zm-15.175 0-.83 4.746h.931l.543-3.298h.02l.215 3.298h.737l1.394-3.298h.02l-.61 3.298h1.012l.831-4.745h-1.42l-1.294 3.103H87.9l-.228-3.103zm8.493 0-.523 2.99a3.13 3.13 0 0 0-.04.275c-.005.089-.007.174-.007.254 0 .197.029.378.087.543.058.161.145.302.262.423.12.12.27.214.449.281.178.067.388.1.63.1.299 0 .552-.046.757-.14a1.48 1.48 0 0 0 .516-.402c.139-.17.248-.37.329-.597.08-.228.145-.473.194-.737l.523-2.99h-1.032l-.503 2.91a3.191 3.191 0 0 1-.087.381c-.036.117-.08.22-.134.309a.687.687 0 0 1-.201.208.557.557 0 0 1-.295.074c-.166 0-.282-.052-.349-.155a.736.736 0 0 1-.094-.389c0-.062.005-.13.014-.2.009-.077.02-.153.033-.228l.51-2.91zm3.492 0-.154.879h.871l-.677 3.867h1.019l.677-3.867h.872l.154-.878zm5.088 0-.825 4.746h.925l.482-2.956h.02l.624 2.956h1.106l.824-4.745h-.904l-.496 2.996h-.027l-.597-2.996zm-19.707.865c.107 0 .196.029.268.087a.538.538 0 0 1 .168.214c.045.09.076.195.093.316.018.12.027.243.027.368 0 .215-.024.44-.074.677a2.965 2.965 0 0 1-.2.657c-.09.201-.2.366-.329.496a.602.602 0 0 1-.435.194.533.533 0 0 1-.275-.066.564.564 0 0 1-.174-.195 1.267 1.267 0 0 1-.095-.295 2.253 2.253 0 0 1-.026-.355c0-.21.022-.438.067-.684.044-.246.111-.474.2-.684.09-.21.2-.384.329-.522a.62.62 0 0 1 .456-.208zm8.606.007h.342c.143 0 .255.045.335.134.085.09.128.214.128.375 0 .237-.06.425-.181.563a.608.608 0 0 1-.483.208h-.355zm8.926.724-.547 3.15h1.039l.547-3.15zm-21.216 4.502c-.335 0-.644.09-.925.268a2.441 2.441 0 0 0-.718.704c-.2.29-.357.626-.469 1.005-.107.38-.16.771-.16 1.173 0 .273.033.523.1.751.067.224.165.416.295.577.13.16.29.286.482.375.197.09.42.134.67.134.287 0 .535-.051.745-.154.214-.107.4-.241.556-.402l-.476-.764c-.071.076-.158.15-.261.22a.685.685 0 0 1-.382.102c-.228 0-.393-.09-.496-.269-.103-.183-.154-.417-.154-.703 0-.22.024-.447.073-.684.054-.241.13-.46.228-.657.099-.197.219-.36.362-.49a.7.7 0 0 1 .483-.194.63.63 0 0 1 .349.087.74.74 0 0 1 .227.242l.704-.764a1.35 1.35 0 0 0-.462-.396c-.192-.107-.45-.16-.771-.16zm3.237 0c-.348 0-.661.094-.938.281a2.456 2.456 0 0 0-.697.724c-.188.3-.333.64-.436 1.02-.098.38-.148.764-.148 1.152 0 .273.034.521.101.744.067.22.165.409.295.57.13.156.288.279.476.368.192.085.409.128.65.128.344 0 .653-.092.925-.275.277-.183.51-.425.697-.724.192-.3.34-.636.443-1.012.102-.38.154-.764.154-1.153 0-.272-.032-.52-.094-.744a1.588 1.588 0 0 0-.288-.576 1.214 1.214 0 0 0-.476-.369 1.529 1.529 0 0 0-.664-.134zm9.283.12-.159.917h1.039l.16-.916zm-6.756.001L85 153.181h.924l.483-2.956h.02l.624 2.956h1.106l.824-4.746h-.905l-.496 2.996h-.027l-.596-2.996zm3.566 0-.154.878h.871l-.677 3.867h1.02l.676-3.867h.871l.154-.878zm5.087 0-.824 4.746h.925l.483-2.956h.02l.623 2.956h1.106l.824-4.746h-.905l-.496 2.996h-.026l-.597-2.996zm3.935 0-.523 2.99a3.131 3.131 0 0 0-.04.274c-.005.09-.007.174-.007.255 0 .196.03.378.087.543.059.16.146.301.262.422.12.12.27.215.449.282.179.067.389.1.63.1.3 0 .552-.047.757-.14a1.48 1.48 0 0 0 .517-.403c.138-.17.247-.369.328-.596.08-.228.145-.474.194-.737l.523-2.99h-1.032l-.503 2.909a3.203 3.203 0 0 1-.087.382c-.036.116-.08.219-.134.308a.687.687 0 0 1-.2.208.557.557 0 0 1-.296.074c-.165 0-.282-.052-.349-.154a.736.736 0 0 1-.093-.39c0-.062.004-.129.013-.2a3.96 3.96 0 0 1 .034-.228l.509-2.909zm3.86 0-.522 2.99a3.105 3.105 0 0 0-.04.274c-.004.09-.007.174-.007.255 0 .196.029.378.087.543.058.16.145.301.261.422.121.12.27.215.45.282.178.067.388.1.63.1.299 0 .551-.047.757-.14a1.48 1.48 0 0 0 .516-.403c.139-.17.248-.369.328-.596.08-.228.145-.474.195-.737l.523-2.99h-1.032l-.503 2.909a3.209 3.209 0 0 1-.088.382c-.035.116-.08.219-.133.308a.686.686 0 0 1-.201.208.557.557 0 0 1-.295.074c-.166 0-.282-.052-.35-.154a.736.736 0 0 1-.093-.39c0-.062.004-.129.014-.2.009-.076.02-.152.033-.228l.51-2.909zm3.949 0-.832 4.746h.932l.543-3.298h.02l.215 3.298h.737l1.395-3.298h.02l-.61 3.298h1.012l.83-4.746h-1.42l-1.294 3.103h-.027l-.228-3.103zm-23.025.864c.108 0 .197.03.269.087a.537.537 0 0 1 .167.215c.045.09.076.195.094.315.018.12.027.244.027.369 0 .214-.025.44-.074.677a2.965 2.965 0 0 1-.2.656c-.09.201-.2.367-.33.496a.602.602 0 0 1-.435.195.533.533 0 0 1-.275-.067.565.565 0 0 1-.174-.195 1.267 1.267 0 0 1-.094-.294 2.254 2.254 0 0 1-.027-.356c0-.21.022-.438.067-.684.045-.245.112-.473.201-.683.09-.21.2-.385.329-.523a.62.62 0 0 1 .455-.208zm9.107.73-.547 3.151h1.039l.547-3.15z" transform="translate(-77.787 -138.642)" /><path d="m128.447 138.642-3.117.494v1.758h-1.889l-1.186 1.361v1.383l2.636 1.318v-.549h.012v-.014h2.635v1.888l1.362 1.186h.945zm-3.996.633-.878.14v.6h.878zm-1.756.278-10.65 1.687 1 6.317h5.948l-1.03 6.5h-3.888l.568 3.586 10.328-1.636-1.73-3.709h-.973v-2.635h1.098l1.525-3.048v-.67l-3.074-1.538h-2.196v-2.635h1.888l1.186-1.361zm-2.196 3.098v.878h.878v-.878zm5.27 2.634v.879h.878v-.879zm-.104 1.757-1.31 2.621h.548v2.635h-.627l1.658 3.556 5.111-.81-.782-4.942h-1.847v-1.888l-1.344-1.172zm3.63 1.303v.879h.828l-.139-.879zm-6.148 2.196v.879h.878v-.879z" transform="translate(-77.787 -138.642)"/><path fill="#ffe800" d="M112.366 148.314h5.65l-.79 4.987h-5.65z" transform="translate(-77.787 -138.642)"/></g></svg>
